<?xml version="1.0" standalone="no"?>
<!DOCTYPE svg PUBLIC "-//W3C//DTD SVG 20010904//EN"
 "http://www.w3.org/TR/2001/REC-SVG-20010904/DTD/svg10.dtd">
<svg version="1.0" xmlns="http://www.w3.org/2000/svg"
 width="400.000000pt" height="400.000000pt" viewBox="0 0 400.000000 400.000000"
 preserveAspectRatio="xMidYMid meet">
<metadata>
Created by potrace 1.11, written by Peter Selinger 2001-2013
</metadata>
<g transform="translate(0.000000,400.000000) scale(0.100000,-0.100000)"
fill="#000000" stroke="none">
<path d="M2527 2423 c-54 -12 -101 -22 -105 -21 -19 4 -163 -66 -195 -95 -28
-25 -43 -62 -27 -72 9 -5 49 -11 150 -20 61 -5 105 -12 105 -15 0 -1 11 -4 24
-6 14 -2 60 -27 103 -54 43 -28 81 -50 84 -50 3 0 28 -16 57 -35 28 -19 55
-35 58 -35 4 0 31 -16 60 -35 29 -19 56 -32 61 -29 4 3 8 0 8 -6 0 -6 5 -8 10
-5 6 3 10 1 10 -6 0 -7 3 -9 6 -6 4 3 16 2 26 -4 11 -6 37 -13 57 -15 38 -4
52 -6 146 -24 33 -7 68 -13 77 -14 10 -1 21 -5 24 -9 12 -12 41 -8 53 7 24 29
-8 54 -89 70 -14 3 -36 8 -50 11 -48 12 -67 15 -103 17 -20 2 -37 5 -37 8 0 3
-13 5 -28 6 -26 1 -159 61 -188 85 -29 23 -301 181 -319 185 -67 15 -105 21
-105 16 0 -2 -6 0 -12 5 -7 5 -23 8 -35 7 -13 0 -23 2 -23 6 0 9 56 33 76 33
8 0 14 3 14 7 0 4 6 7 13 7 6 0 46 8 87 18 76 18 250 28 250 14 0 -4 9 -6 20
-4 11 2 20 1 20 -3 0 -4 10 -8 22 -9 23 -2 130 -43 138 -53 7 -8 79 -41 99
-45 9 -2 17 -4 19 -5 1 -2 7 -4 12 -5 6 -1 11 -3 13 -5 7 -5 219 -31 275 -32
18 -1 35 -5 38 -10 3 -4 10 -8 15 -8 6 0 7 6 3 13 -6 9 -4 9 7 1 8 -6 41 -16
74 -23 33 -7 66 -18 74 -25 8 -6 15 -9 15 -8 2 7 76 -10 81 -19 3 -4 12 -6 20
-2 8 3 15 1 15 -5 0 -5 21 -17 47 -27 26 -10 54 -23 62 -29 43 -33 77 -76 79
-100 l2 -27 -28 33 c-15 18 -31 35 -35 37 -4 1 -16 11 -25 21 -40 41 -240 115
-329 122 -18 1 -33 5 -33 8 0 3 -19 5 -42 5 -24 0 -47 2 -53 4 -14 7 -33 10
-82 12 -24 1 -43 5 -43 8 0 3 -12 7 -27 8 -37 2 -76 11 -110 25 -16 6 -31 12
-35 13 -5 2 -10 4 -13 5 -3 1 -8 3 -12 5 -5 1 -28 11 -53 22 -46 20 -97 36
-103 31 -2 -2 -10 2 -18 7 -8 6 -35 10 -61 10 -27 0 -48 3 -48 8 0 4 -6 5 -12
0 -7 -4 -30 -9 -50 -10 -44 -3 -78 -18 -78 -36 0 -20 36 -45 51 -37 15 9 180
6 219 -4 14 -3 26 -10 28 -16 2 -6 7 -8 12 -5 4 3 27 -4 51 -14 24 -11 48 -20
52 -20 4 1 18 -6 30 -13 24 -15 105 -37 150 -40 15 -1 27 -5 27 -8 0 -3 17 -6
38 -6 38 -1 106 -9 177 -21 22 -3 48 -6 58 -7 9 0 17 -3 17 -6 0 -3 11 -7 24
-8 13 -1 37 -6 52 -12 16 -6 30 -11 32 -11 1 1 16 -6 32 -14 16 -8 33 -16 37
-17 19 -2 53 -22 53 -30 0 -4 7 -8 15 -8 9 0 18 -7 21 -15 4 -8 10 -12 15 -9
5 3 9 -2 9 -10 0 -9 4 -16 8 -16 14 0 34 -52 24 -62 -5 -5 -18 -11 -30 -13
-12 -3 -32 -7 -44 -10 -13 -3 -63 -7 -111 -9 -80 -4 -90 -2 -105 16 -41 50
-127 118 -157 124 -5 1 -35 13 -65 27 -30 13 -61 22 -67 20 -7 -3 -13 -1 -13
5 0 5 -6 9 -12 10 -31 3 -66 11 -108 22 -25 7 -49 13 -55 14 -5 1 -16 5 -22 9
-7 5 -13 6 -13 2 0 -3 -10 0 -22 7 -13 7 -27 13 -33 14 -5 0 -13 2 -17 4 -5 1
-11 3 -15 4 -20 5 -139 70 -145 80 -4 6 -8 7 -8 1 0 -7 -3 -7 -8 0 -22 30 -89
38 -78 9 3 -8 1 -14 -5 -14 -13 0 17 -31 45 -46 12 -6 37 -20 57 -31 20 -12
45 -26 55 -32 19 -11 90 -40 99 -40 3 -1 20 -7 39 -15 19 -8 37 -12 40 -8 3 3
6 1 6 -4 0 -8 21 -13 78 -17 12 0 22 -5 22 -11 0 -5 3 -7 6 -3 3 3 23 -1 44
-8 21 -7 41 -11 44 -8 3 4 6 1 6 -6 0 -6 6 -11 13 -10 22 4 177 -68 177 -82 0
-4 9 -11 20 -14 11 -4 18 -10 15 -15 -9 -14 -361 5 -380 20 -7 6 -14 7 -17 4
-5 -5 -114 19 -148 33 -8 3 -24 7 -35 9 -11 1 -45 10 -75 19 -30 9 -64 18 -75
20 -11 3 -31 9 -45 14 -24 10 -91 28 -135 37 -86 19 -123 26 -145 29 -14 2
-38 6 -55 9 -16 3 -46 8 -65 11 -39 6 -74 13 -77 15 -4 2 -82 2 -90 0 -5 -1
-12 -2 -16 -1 -4 1 -40 -14 -80 -32 -40 -19 -83 -33 -95 -32 -12 1 -22 -3 -22
-9 0 -6 -5 -4 -10 4 -6 9 -13 11 -17 5 -5 -5 -24 -10 -43 -10 -19 0 -39 -2
-45 -5 -5 -2 -17 -5 -25 -7 -14 -2 -84 -13 -125 -19 -11 -2 -41 -5 -67 -8 -25
-2 -50 -6 -55 -9 -4 -2 -26 -8 -47 -11 -50 -10 -82 -31 -117 -80 -20 -27 -26
-43 -19 -51 5 -6 7 -15 3 -18 -3 -4 2 -7 13 -8 18 -1 44 -4 89 -12 11 -1 26
-6 33 -11 6 -4 12 -4 12 0 0 3 6 2 13 -4 6 -5 27 -13 45 -17 17 -3 32 -10 32
-15 0 -24 59 8 60 32 0 15 -101 63 -167 79 -45 11 -45 11 -25 25 10 7 32 15
48 18 16 2 29 5 29 6 0 1 18 4 40 5 22 2 40 4 40 5 0 1 11 3 25 5 14 1 45 6
70 10 25 4 51 8 58 8 6 0 12 3 12 6 0 3 17 7 38 7 91 3 188 17 202 28 8 8 32
19 53 26 20 6 37 15 37 19 0 8 90 6 135 -3 17 -3 55 -8 85 -12 30 -3 59 -9 65
-12 5 -3 21 -7 35 -8 14 -1 57 -9 95 -17 91 -20 99 -22 170 -43 33 -10 63 -17
68 -16 4 1 7 -2 7 -7 0 -6 8 -10 18 -9 28 0 75 -12 89 -24 7 -6 13 -8 13 -5 0
3 38 -5 85 -18 47 -13 85 -21 85 -18 0 3 7 0 15 -7 11 -9 15 -9 15 -1 0 7 5 9
13 4 23 -15 86 -19 350 -24 66 -1 117 -7 117 -12 0 -6 5 -6 13 0 6 6 39 11 72
12 108 4 207 25 226 47 14 17 29 18 29 3 0 -12 -30 -44 -30 -32 0 4 -5 1 -10
-7 -5 -8 -13 -15 -17 -15 -4 -1 -18 -6 -30 -13 -12 -7 -26 -12 -30 -11 -4 1
-10 0 -13 -1 -11 -4 -60 -11 -138 -18 -93 -9 -189 -8 -307 4 -44 4 -93 8 -110
10 -16 1 -30 3 -30 4 0 2 -27 7 -85 15 -25 4 -61 9 -80 12 -19 3 -41 6 -47 6
-7 0 -13 4 -13 9 0 4 -10 8 -23 8 -12 0 -67 12 -122 26 -143 36 -178 45 -195
49 -8 2 -33 8 -55 13 -36 10 -80 18 -140 27 -11 2 -20 4 -20 5 0 1 -13 3 -30
5 -75 7 -152 17 -175 21 -83 17 -130 7 -130 -26 0 -21 26 -32 80 -36 19 -1 55
-5 80 -8 25 -4 65 -9 90 -12 25 -2 59 -7 75 -10 17 -4 41 -8 55 -9 14 -2 25
-4 25 -5 0 -2 15 -5 58 -13 15 -3 35 -8 45 -11 16 -5 57 -14 92 -20 8 -2 22
-6 30 -9 20 -7 208 -55 240 -61 14 -2 25 -5 25 -6 0 -2 35 -8 80 -14 17 -2 44
-6 60 -9 17 -3 55 -9 85 -12 30 -4 69 -9 85 -12 45 -8 383 -9 440 -1 28 4 75
15 105 24 84 26 80 28 65 -22 -7 -24 -11 -44 -8 -44 2 0 -5 -13 -16 -29 -12
-16 -21 -32 -21 -35 0 -4 -12 -19 -27 -33 -28 -29 -93 -76 -93 -67 0 2 -10 -1
-22 -8 -13 -7 -25 -13 -28 -13 -3 -1 -24 -7 -48 -14 -81 -23 -198 -34 -357
-34 -143 0 -205 4 -205 13 0 3 -10 6 -22 7 -13 1 -32 3 -43 6 -11 3 -40 10
-65 17 -69 17 -75 18 -77 20 -3 3 -7 4 -58 14 -22 4 -44 11 -50 14 -5 4 -14 7
-20 8 -5 1 -37 10 -70 19 -33 9 -71 18 -84 21 -14 3 -29 7 -33 10 -5 3 -24 8
-41 10 -18 3 -43 7 -57 11 -14 3 -41 7 -60 8 -19 2 -35 4 -35 5 0 1 -16 3 -35
4 -67 6 -175 17 -200 22 -14 3 -45 7 -70 9 -25 2 -45 4 -45 5 0 1 -13 3 -30 5
-88 7 -171 18 -180 23 -5 3 -25 7 -45 8 -19 1 -35 3 -35 4 0 1 -7 3 -15 5 -8
2 -33 9 -55 15 -22 6 -47 13 -55 15 -8 2 -16 4 -17 5 -2 2 -6 3 -10 4 -5 1
-34 10 -65 20 -47 15 -61 16 -73 6 -25 -21 -17 -40 23 -57 20 -9 42 -18 47
-19 51 -15 98 -27 138 -38 26 -6 46 -14 43 -16 -2 -3 5 -6 17 -6 12 -1 34 -4
49 -8 14 -3 46 -8 70 -10 117 -12 165 -17 188 -22 14 -3 48 -8 75 -9 28 -2 64
-6 80 -9 37 -6 162 -19 193 -20 12 0 22 -2 22 -5 0 -4 17 -7 38 -7 41 -1 100
-12 114 -20 5 -3 19 -7 31 -9 21 -4 38 -8 135 -36 20 -6 44 -12 52 -13 8 -2
22 -6 30 -9 44 -18 305 -77 365 -83 84 -8 265 -11 265 -4 0 3 21 6 48 6 57 1
112 10 189 30 32 9 63 17 68 18 39 7 205 116 179 116 -5 0 -4 4 1 8 29 20 69
110 82 182 8 44 9 222 1 275 -9 60 -22 87 -64 125 -37 34 -167 107 -203 114
-9 2 -23 6 -31 9 -26 10 -86 27 -109 32 -11 2 -24 6 -29 8 -15 10 -194 36
-204 30 -5 -2 -8 -1 -8 4 0 4 -21 8 -48 8 -26 -1 -67 3 -92 8 -25 5 -58 11
-75 14 -16 3 -70 25 -120 49 -177 86 -314 106 -478 67z"/>
<path d="M365 2397 c-8 -4 -15 -5 -15 -1 0 5 -11 -7 -25 -26 -14 -19 -25 -41
-25 -51 0 -24 38 -69 59 -69 10 0 21 -3 25 -7 4 -5 11 -8 14 -9 4 0 22 -4 40
-8 27 -6 32 -12 32 -37 0 -16 -6 -32 -12 -34 -31 -11 -68 -13 -74 -4 -3 5 -10
7 -15 4 -5 -4 -19 1 -31 9 -29 21 -38 20 -38 -2 0 -18 39 -44 70 -47 8 -1 25
-5 38 -9 14 -5 22 -3 22 4 0 6 4 8 10 5 15 -10 70 27 70 47 0 10 6 18 13 18 8
0 7 4 -3 10 -8 5 -11 10 -7 10 19 0 -17 42 -53 60 -22 11 -40 18 -40 16 0 -9
-65 17 -72 28 -11 16 -10 21 10 42 18 21 82 29 82 11 0 -6 3 -7 7 -4 3 4 12 2
20 -5 17 -13 39 4 28 22 -16 27 -100 44 -130 27z"/>
<path d="M548 2403 c-6 -13 -2 -283 5 -289 14 -14 34 6 35 35 0 17 7 38 16 46
17 17 26 11 66 -48 14 -20 33 -37 43 -37 9 0 17 2 17 5 0 7 -52 87 -67 103
-17 18 -19 14 26 60 33 34 42 38 52 26 6 -8 9 -14 5 -14 -4 0 0 -13 9 -30 8
-16 15 -31 14 -32 -2 -2 4 -14 11 -28 8 -14 15 -27 15 -30 0 -3 6 -15 13 -27
14 -26 2 -66 -24 -81 -20 -11 -12 -42 10 -42 19 0 49 43 71 105 10 28 22 55
27 61 4 6 5 14 1 17 -3 4 -1 7 6 7 6 0 11 6 10 13 -1 6 5 29 14 49 26 58 21
72 -15 44 -10 -7 -18 -21 -18 -30 0 -9 -5 -16 -11 -16 -5 0 -7 -4 -4 -10 3 -5
3 -16 -2 -22 -4 -7 -8 -15 -9 -18 -14 -46 -17 -50 -30 -39 -8 6 -14 16 -14 21
0 9 -17 50 -42 105 -18 37 -72 29 -127 -20 -25 -23 -49 -46 -53 -52 -8 -10 -9
-1 -12 105 -1 52 -4 65 -18 68 -9 2 -18 -1 -20 -5z"/>
<path d="M976 2394 c-3 -9 -6 -74 -6 -145 0 -110 2 -131 16 -136 25 -9 30 9
28 102 -1 47 2 85 7 85 5 0 9 -7 9 -15 0 -8 4 -15 8 -15 5 0 18 -20 30 -44 39
-78 55 -79 92 -8 12 23 26 42 32 42 5 0 7 3 4 8 -2 4 2 16 10 26 12 17 13 12
13 -45 -1 -135 -1 -139 21 -139 23 0 23 0 20 170 -1 132 0 126 -21 126 -11 0
-28 -21 -45 -56 -16 -30 -32 -57 -35 -60 -3 -3 -14 -21 -24 -40 -13 -24 -20
-30 -23 -20 -3 8 -8 17 -11 20 -10 8 -42 63 -48 83 -3 9 -9 17 -13 17 -4 0
-10 9 -13 19 -7 28 -43 45 -51 25z"/>
<path d="M1343 2310 c-23 -18 -49 -67 -48 -90 3 -44 46 -108 76 -111 47 -5
102 8 93 22 -3 5 1 9 9 9 8 0 20 13 26 28 13 31 12 102 -1 102 -4 0 -8 6 -8
14 0 8 -9 18 -20 21 -11 3 -20 11 -20 16 0 15 -85 7 -107 -11z m109 -44 c25
-30 23 -75 -6 -101 -20 -19 -34 -22 -77 -16 -4 1 -13 15 -22 32 -39 81 50 153
105 85z"/>
<path d="M1549 2325 c-1 -3 -2 -8 -3 -12 -1 -5 -4 -13 -8 -18 -4 -6 -3 -17 2
-25 5 -8 5 -21 -1 -31 -6 -12 -5 -20 1 -24 8 -5 8 -11 0 -20 -6 -8 -7 -16 -2
-19 5 -3 8 -19 6 -35 -3 -24 0 -29 16 -28 22 1 22 1 24 77 1 59 14 90 37 93
20 4 39 17 39 28 0 18 -31 21 -49 5 -16 -15 -19 -15 -31 -1 -12 15 -29 20 -31
10z"/>
<path d="M1697 2314 c-27 -14 -27 -16 -11 -29 15 -10 20 -10 32 1 17 18 43 18
67 0 26 -19 29 -52 5 -52 -10 0 -16 4 -13 9 3 5 -10 6 -28 2 -19 -3 -40 -7
-46 -7 -7 -1 -11 -3 -9 -6 3 -2 -7 -15 -21 -28 -14 -13 -20 -24 -14 -24 7 0 9
-5 5 -11 -10 -16 51 -67 78 -65 13 0 29 7 36 14 18 17 39 15 50 -4 8 -14 11
-14 18 -3 11 19 5 151 -8 167 -6 6 -7 12 -3 12 4 0 -4 9 -18 20 -30 24 -81 25
-120 4z m110 -120 c14 -37 -76 -72 -95 -37 -6 10 -11 22 -12 27 -6 28 96 37
107 10z"/>
<path d="M1870 2315 c0 -8 10 -36 22 -62 12 -27 29 -65 39 -87 10 -21 15 -45
12 -54 -5 -11 -3 -13 8 -7 19 12 -7 -22 -36 -47 -15 -12 -17 -20 -9 -28 15
-16 60 6 69 34 4 11 8 26 10 31 2 6 22 55 44 109 44 107 48 126 27 126 -13 0
-59 -91 -59 -117 0 -7 -4 -13 -9 -13 -5 0 -7 -4 -3 -9 3 -5 1 -12 -5 -16 -10
-6 -51 76 -62 125 -3 10 -27 30 -37 30 -6 0 -11 -7 -11 -15z"/>
<path d="M1704 1852 c-6 -4 -16 -16 -22 -28 -9 -17 -7 -25 9 -43 11 -11 25
-21 32 -21 20 0 44 22 49 45 8 33 -40 65 -68 47z"/>
</g>
</svg>
